<svg id="Layer_1" data-name="Layer 1" xmlns="http://www.w3.org/2000/svg" width="400" height="400" viewBox="0 0 400 400"><defs><style>.cls-1{fill:#00bfbf;}</style></defs>
<path class="cls-1" 
transform="scale(0.07, -0.06) translate(100, -750)"
d="M31 12q-1 0 -7 2q1 3 0 6q2 0 4 -0.5t4 -0.5q0 -2 -0.5 -3.5t-0.5 -3.5zM40 34q6 -2 9 -1q0 -2 -0.5 -5t-0.5 -5q-4 2 -8 2q0 2 0.5 4.5t-0.5 4.5zM38 70l1 1v-2zM222 321v368h151v-468q0 -42 -14 -79h-1l-2 -2q1 0 1 -1q-5 -15 -13 -28t-18 -25v1q-3 3 -6 1q-3 -3 0 -5 q2 -2 3 -2q-13 -14 -28 -26.5t-32 -21.5q2 5 -3 7q-3 3 -6.5 0t-1.5 -7q1 -3 4 -3q-3 -2 -9 -4q-3 3 -4 3q-2 2 -5 0.5t-3 -5.5v-3q-6 -2 -10 -3q-3 0 -5 -1q-4 -2 -8 -2.5t-9 -1.5q1 3 -1 6.5t-6 4.5t-7 -2t-2 -7q1 -1 1 -2t1 -2h-7q-1 1 -4 1t-5 -1h-16q0 4 -5 6 q-4 3 -8 0.5t-4 -6.5h-12q2 5 -2 9q-2 4 -6.5 4.5t-6.5 -1.5q-7 -5 -3 -12h-2q-8 4 -12 0h-2q4 2 5 6.5t-2 8.5q-7 9 -15 3q-6 -5 -2 -13q-6 3 -12 3q3 6 0 12q2 -1 3.5 -2t3.5 -1q5 -1 8.5 3.5t1.5 9.5t-7 7t-9 -1q-4 -2 -4 -6t1 -7q-5 3 -11 3q2 7 -1 12q4 -3 8 -3 q5 -1 8 3t1 9t-7 7.5t-9 -1.5q-3 -2 -3.5 -5.5t0.5 -6.5q-5 3 -11 3q2 7 0 12q4 -4 8 -4q5 0 8 3.5t1 8.5q-1 5 -4.5 8t-8.5 1l5 10q7 0 8 4q3 2 2.5 6t-2.5 6l1 3q1 -1 1 -1.5t1 -1.5q3 -3 7 -2.5t6 3.5q3 3 2 7.5t-6 6.5q-1 1 -5 1l6 12q3 0 5 3q3 2 1 9v1l2 5 q2 -4 6.5 -4.5t6.5 2.5q3 3 1.5 8t-6.5 5h-2v2h11q0 -2 2 -2q4 -5 10 -1q0 1 0.5 1t0.5 1h7h10q-1 -2 -0.5 -2.5t0.5 -1.5q2 -3 5.5 -4t5.5 1q2 1 2 6h5h15.5t15.5 2q2 -3 4 -1q1 -1 4 2l1 1q17 5 27.5 16t10.5 34v97q1 0 1 0.5t1 0.5zM364 201q0 1 -0.5 1t-0.5 -1t0.5 -1 t0.5 1zM361 172q-1 0 -1 -0.5t-1 -0.5l2 -2l1 1q0 1 -0.5 1t-0.5 1zM221 183q-2 -5 2 -6q2 -5 5 0q3 3 -1 7q-4 2 -6 -1zM218 153q-3 -5 1 -7q5 -4 7 1q2 4 -1 7q-5 3 -7 -1zM214 121q-1 -2 1.5 -4.5t4.5 -2.5t4 2t0.5 5t-4.5 4q-4 2 -6 -4zM204 171q-3 -5 2 -7q4 -4 6 1 q4 4 -1 6q-4 3 -7 0zM200 139q-1 -2 1.5 -5t4.5 -2q2 0 4 2t0.5 5t-3.5 4q-5 2 -7 -4zM206 112q-3 2 -6.5 0t-2.5 -6t5 -5t6 2q4 5 -2 9zM205 71q2 2 1.5 6t-3.5 6t-6 0.5t-3 -5.5q-1 -5 3.5 -7.5t7.5 0.5zM187 157q-1 -2 1 -5t5 -2q2 0 4 2t0.5 5t-4.5 4q-6 2 -6 -4z M192 130q-3 2 -6.5 0t-1.5 -6q0 -4 4 -5t6 2q5 5 -2 9zM189 101q-4 2 -7 -1.5t-1 -7.5q1 -3 4.5 -4t5.5 1q3 2 2.5 6t-4.5 6zM179 148q-4 2 -7 0t-2 -6t5 -5t6 2q4 5 -2 9zM117 87q3 4 1.5 8.5t-6.5 5.5q-5 2 -8 -1.5t-1 -8.5t7 -6.5t7 2.5zM128 113q-5 2 -7.5 -1t-1.5 -7 q1 -5 6 -7t8 2q3 3 1.5 8t-6.5 5zM104 105q2 4 1 8.5t-6 5.5q-5 2 -8.5 -1.5t-1.5 -8.5t7 -6.5t8 2.5zM94 90q-5 0 -7.5 -4t-0.5 -8q2 -5 7.5 -6.5t8.5 3.5q3 4 0 9.5t-8 5.5zM106 72q-5 0 -6.5 -5t1.5 -9q2 -4 7 -4.5t7 3.5q4 5 0 11t-9 4zM117 72q2 -5 6.5 -5.5t7.5 2.5 q3 4 1 10q-3 5 -9 5q-4 0 -6 -3.5t0 -8.5zM137 66q-4 1 -6.5 -3t-0.5 -8q2 -5 6.5 -6t7.5 2q4 3 1 10q-2 5 -8 5zM133 87q1 -5 6 -7t7 2q4 3 2 8t-7 5q-4 2 -6.5 -1t-1.5 -7zM155 78q-4 1 -7 -2t-2 -7q1 -5 6 -7t8 2q3 3 1.5 8t-6.5 6zM154 107q-4 -1 -4.5 -5.5t3.5 -7.5 q5 -4 9 0t0.5 9.5t-8.5 3.5zM168 60q-4 1 -6.5 -2t-1.5 -7q1 -5 6 -7t8 2q3 3 1 8t-7 6zM166 76q5 -4 10 1q2 2 1 7q-2 8 -9 5q-5 0 -5.5 -5t3.5 -8zM178 107q2 2 1.5 6t-4.5 6t-7 -1.5t-1 -7.5q2 -3 5.5 -4t5.5 1zM163 167q3 -1 4.5 -4.5t-0.5 -5.5q-2 -3 -5.5 -2.5 t-5.5 5.5q-1 3 1.5 5.5t5.5 1.5zM162 137q-5 2 -7.5 -1.5t-0.5 -7.5q1 -3 4.5 -4t5.5 1q3 2 2 6t-4 6zM147 155q-4 1 -6.5 -2t-0.5 -7q2 -3 5 -4t5 1q3 2 2 6.5t-5 5.5zM141 125q-5 -1 -5.5 -6t3.5 -7q5 -3 10 0q4 4 0.5 9.5t-8.5 3.5zM133 142q-5 4 -9 0q-2 -3 -1.5 -7 t4.5 -5q4 -4 8 0q2 2 1.5 6t-3.5 6zM113 161q-4 -1 -4.5 -6t3.5 -7q5 -4 9 0q5 5 1 10q-3 5 -9 3zM114 131q-4 2 -7 -1t-1 -7q0 -5 5.5 -7t7.5 2q3 3 1.5 8t-6.5 5zM100 149q-4 2 -6.5 -1t-1.5 -7q1 -5 6 -7t8 2q3 3 1 8t-7 5zM75 128q1 -5 6.5 -7t8.5 2q3 3 1.5 8t-5.5 6 q-5 2 -9 -1t-2 -8zM80 108q-5 0 -7.5 -4t-0.5 -8q2 -5 7.5 -6.5t8.5 3.5q4 4 0.5 9.5t-8.5 5.5zM57 81q2 -5 7.5 -5t7.5 4q2 2 2 8q-2 5 -6 7.5t-8 0.5t-5 -6.5t2 -8.5zM69 65q2 -5 8 -6.5t9 3.5q4 4 1 10t-9 6q-5 2 -8 -3t-1 -10zM83 47q2 -5 7.5 -6.5t8.5 3.5q4 4 1 10 t-8 6q-5 2 -8.5 -3t-0.5 -10zM113 26q4 4 1 10t-8 6q-5 2 -8.5 -3t-1.5 -10t8 -6.5t9 3.5zM116 38q7 -7 13 1q3 3 1.5 7.5t-5.5 6.5q-5 4 -11 -2q-2 -2 -1.5 -6.5t3.5 -6.5zM143 21q2 3 1 7.5t-5 6.5t-7.5 1t-4.5 -5q-2 -2 -0.5 -5.5t3.5 -5.5q8 -6 13 1zM144 37 q2 -5 6.5 -6t7.5 2t1 10q-2 5 -8 5q-5 1 -7 -3t0 -8zM171 15q4 4 2 10q-3 5 -9 5q-4 1 -6.5 -3t-0.5 -8q2 -5 7 -6t7 2zM187 28q4 3 2 8t-7 6q-4 1 -7 -2t-1 -7q0 -5 5.5 -7t7.5 2zM180 58q6 -4 9 1q3 3 2 7q-1 3 -4 5t-5 0q-5 0 -5.5 -5t3.5 -8zM194 41q5 -5 9 0q2 2 2 7 q-2 8 -10 6q-4 -1 -4.5 -6t3.5 -7zM217 23q2 4 1 7q-2 8 -9 6q-5 -1 -5.5 -6t3.5 -7q4 -4 10 0zM219 53q2 2 1.5 6t-4.5 6q-2 2 -5 0.5t-3 -5.5q-2 -5 2.5 -7.5t8.5 0.5zM212 87q1 -4 4.5 -4t5.5 2q4 8 -4 10q-4 1 -6 -2t0 -6zM232 35q3 2 2.5 6t-4.5 6q-3 2 -6 0.5t-3 -5.5 q-1 -4 3.5 -7t7.5 0zM235 68q2 2 0.5 5t-4.5 4t-5.5 -2t-0.5 -6q2 -4 5 -4t5 3zM234 96q2 0 4 2t0 5t-4 4q-6 2 -6 -4q-2 -7 6 -7zM241 166q-4 2 -6 -1q-4 -4 1 -6q4 -4 6 1q2 2 -1 6zM239 196q-3 -3 -1 -6q5 -2 6 0q2 2 0 5q-3 3 -5 1zM238 136q-4 2 -6 -1q-3 -3 1 -7t7 1 q2 4 -2 7zM249 50q2 2 1 4.5t-3 3.5q-4 3 -7 0t-1 -7q1 -3 4.5 -3.5t5.5 2.5zM251 80q2 2 0.5 5t-3.5 4q-5 2 -7 -4q-1 -2 1.5 -4.5t4.5 -2.5t4 2zM253 111q3 3 -1 7q-4 2 -7 -1q-2 -4 2 -7q4 -4 6 1zM254 148q-3 2 -6 -1q-2 -4 2 -6q4 -4 6 1q2 2 -2 6zM252 178q-2 -2 0 -6 q3 -3 6 0q2 2 0 5q-4 2 -6 1zM265 62q2 2 0.5 5t-4.5 4q-4 1 -6 -4q-2 -7 6 -7q2 0 4 2zM267 93q2 4 -1 7q-5 3 -7 -1t1 -7q5 -3 7 1zM268 130q-4 2 -6 -1q-2 -4 1 -6q4 -4 6 1q3 2 -1 6zM266 160q-3 -3 -1 -6q5 -2 6 0q2 2 0 5q-3 3 -5 1zM279 45q2 2 0 4.5t-4 3.5 q-6 2 -6 -4q-2 -7 6 -7q2 0 4 3zM281 75q2 4 -2 7q-4 2 -6 -1q-3 -3 1 -7q4 -2 7 1zM283 106q2 4 -1 6q-4 2 -6 -1q-4 -4 1 -6q4 -4 6 1zM279 137q4 -4 6 -1q1 2 0 5q-3 3 -5 1q-4 -2 -1 -5zM294 57q3 3 -1 7q-3 3 -7 -1q-2 -4 2 -7q4 -2 6 1zM297 88q2 4 -2 6q-4 4 -6 -1 q-2 -4 2 -6q2 -3 6 1zM299 118q0 4 -1 5q-1 3 -5 1q-3 -3 0 -5q2 -5 6 -1zM310 70q4 4 -1 6q-4 4 -6 -1q-2 -4 1 -6q4 -4 6 1zM312 100q2 3 0 5q-2 4 -5 1q-4 -2 -1 -5q3 -4 6 -1zM351 219h-2q1 -1 2 0zM347 190q0 -1 -1 -1q0 -1 1 -2q1 0 1 0.5t1 0.5zM345 160q-2 0 -2 -2 l1 -2q1 0 3 2q-2 0 -2 2zM339 128q0 -2 2 -3t3 1q2 2 -1 4q-4 2 -4 -2zM337 236q0 1 -1 1q0 -1 1 -1zM334 208q-1 -1 -2 -1q1 -1 1 -2q1 0 2 1q0 1 -0.5 1t-0.5 1zM329 176l2 -2l2 2l-2 2zM326 146q0 -2 1.5 -3t2.5 1q2 2 -1 4q-3 3 -3 -2zM328 117q-3 5 -5 0v-4q2 -3 5 0 q2 2 0 4zM323 254q0 1 -1 1q0 -1 1 -1zM320 226l-2 -2q1 0 1 -0.5t1 -0.5l1 1q0 1 -1 2zM317 196l-2 -2l2 -2q1 0 2 1q0 1 -2 3zM312 164q0 -2 1.5 -3t3.5 1q0 3 -1 4q-4 2 -4 -2zM314 135q-3 2 -4 1q-1 -3 0 -5q2 -2 4 0t0 4zM310 272q-1 1 -2 1q1 -1 2 -1zM306 244 q0 -1 -0.5 -1t-0.5 -1l1 -1q1 0 2 1zM304 214l-2 -2q0 -1 0.5 -1t0.5 -1q1 0 1.5 0.5t1.5 0.5q-2 2 -2 3zM299 182q-1 -2 1 -3t3 1q2 2 -1 4q-2 1 -3 0t0 -2zM301 152q0 2 -4 2t-1 -5q2 -2 5 0v3zM296 290q0 1 -0.5 1t-0.5 -1h1zM291 260q1 0 1 -0.5t1 -0.5l1 1l-1 2z M288 230l2 -2q1 0 1 0.5t1 0.5q-1 1 -1 1.5t-1 1.5zM285 199q0 -2 1.5 -2.5t2.5 0.5q2 4 -1 5q-3 0 -3 -3zM287 170q0 2 -4 2q-1 0 -1 -5q3 -2 5 0v3zM282 308h-1q1 1 1 0zM279 279l-1 -1l1 -2l2 2q-1 0 -1 0.5t-1 0.5zM277 250q-1 -1 -1.5 -1t-1.5 -1l2 -2q1 0 2 1 q0 1 -0.5 1.5t-0.5 1.5zM271 217q0 -5 5 -2q0 4 -1 4q-4 2 -4 -2zM271 190q-2 1 -3 -1t1 -4q3 -3 4 0q2 1 1 3t-3 2zM269 326q-1 1 -1 0t1 0zM266 297q-1 0 -2 -1l1 -2l2 2zM263 268l-2 -2q0 -1 2 -3q0 2 2 2q-1 1 -1 1.5t-1 1.5zM258 235q-1 -2 1 -2.5t3 0.5q2 4 -1 4 q-5 3 -3 -2zM258 208q-2 1 -3 -1t0 -4q2 -3 5 0q1 1 0.5 3t-2.5 2zM255 344q0 1 -0.5 1t-0.5 -1t0.5 -1t0.5 1zM252 315q-1 0 -2 -1l2 -2q0 1 0.5 1t0.5 1zM249 286q0 -2 -2 -2q1 -1 1 -1.5t1 -1.5l2 2q0 1 -2 3zM244 253q0 -2 1.5 -2.5t2.5 0.5t1 2.5t-2 1.5q-3 3 -3 -2z M244 226q-2 1 -3 -1t0 -4q4 -2 5 -1q1 2 0.5 4t-2.5 2zM242 362q-1 1 -2 0q1 -1 2 0zM237 332q0 -1 0.5 -1t0.5 -1q1 1 2 1l-2 2zM236 303q-1 0 -1.5 -0.5t-1.5 -0.5q2 -2 2 -3q1 1 1.5 1t1.5 1zM230 271q0 -2 2 -2.5t3 0.5t1 2.5t-2 1.5q-4 2 -4 -2zM230 244q-2 1 -2.5 -1 t0.5 -4q2 -3 4 -1t1 4t-3 2zM230 213q-2 2 -5 1q-2 -4 0 -6q2 -5 5 0q2 2 0 5zM225 351q-1 0 -1 -0.5t-1 -0.5q1 -1 1 -2q1 1 2 1q0 1 -1 2zM54 11v5q6 -2 9 -1q0 -1 -0.5 -2t-0.5 -2h-8zM82 13q2 -2 3 -2h-2q-1 1 -1 2zM26 44l3 7q4 -1 7 0q-1 -3 -1 -10q-6 2 -9 2v1z" 
/>
</svg>